# Blender 4.3.1
# www.blender.org
mtllib elligible_direction_indicator.mtl
o Circle
v -0.391016 0.021152 0.811354
v -0.392260 0.028291 0.823636
v -0.399191 0.021152 0.781199
v -0.404808 0.028291 0.777352
v -0.400183 0.021152 0.802522
v -0.406330 0.028291 0.810080
v 0.399191 0.021152 0.781199
v 0.404808 0.028291 0.777352
v 0.391016 0.021152 0.811354
v 0.392260 0.028291 0.823636
v 0.400183 0.021152 0.802522
v 0.406330 0.028291 0.810080
v -0.380152 0.021152 0.710972
v -0.384727 0.028291 0.703283
v -0.346246 0.021152 0.669282
v -0.347085 0.028291 0.657000
v -0.365540 0.021152 0.681493
v -0.368505 0.028291 0.670556
v 0.346246 0.021152 0.669282
v 0.347085 0.028291 0.657000
v 0.380152 0.021152 0.710972
v 0.384727 0.028291 0.703283
v 0.365540 0.021152 0.681493
v 0.368505 0.028291 0.670556
v 0.391016 0.117436 0.811354
v 0.392260 0.110296 0.823636
v 0.399191 0.117436 0.781199
v 0.404808 0.110296 0.777352
v 0.400183 0.117436 0.802522
v 0.406330 0.110296 0.810080
v -0.399191 0.117436 0.781199
v -0.404808 0.110296 0.777352
v -0.391016 0.117436 0.811354
v -0.392260 0.110296 0.823636
v -0.400183 0.117436 0.802522
v -0.406330 0.110296 0.810080
v 0.380152 0.117436 0.710972
v 0.384727 0.110296 0.703283
v 0.346246 0.117436 0.669282
v 0.347085 0.110296 0.657000
v 0.365540 0.117436 0.681493
v 0.368505 0.110296 0.670556
v -0.346246 0.117436 0.669282
v -0.347085 0.110296 0.657000
v -0.380152 0.117436 0.710972
v -0.384727 0.110296 0.703283
v -0.365540 0.117436 0.681493
v -0.368505 0.110296 0.670556
vn -0.1497 -0.9429 0.2975
vn -0.3230 -0.4497 0.8328
vn -0.4389 -0.8966 -0.0588
vn -0.9270 -0.3423 -0.1533
vn -0.4327 -0.8958 0.1015
vn -0.8443 -0.3932 0.3640
vn 0.4389 -0.8966 -0.0588
vn 0.9270 -0.3423 -0.1533
vn 0.1497 -0.9429 0.2975
vn 0.3230 -0.4497 0.8328
vn 0.4327 -0.8958 0.1015
vn 0.8443 -0.3932 0.3640
vn -0.3916 -0.9104 -0.1336
vn -0.8626 -0.3754 -0.3390
vn -0.0988 -0.9507 -0.2939
vn -0.2400 -0.4614 -0.8541
vn -0.3086 -0.9240 -0.2259
vn -0.6575 -0.4272 -0.6207
vn 0.0988 -0.9507 -0.2939
vn 0.2400 -0.4614 -0.8541
vn 0.3916 -0.9104 -0.1336
vn 0.8626 -0.3754 -0.3390
vn 0.3086 -0.9240 -0.2259
vn 0.6575 -0.4272 -0.6207
vn 0.1497 0.9429 0.2975
vn 0.3230 0.4497 0.8328
vn 0.4389 0.8966 -0.0588
vn 0.9270 0.3423 -0.1533
vn 0.4327 0.8958 0.1015
vn 0.8443 0.3932 0.3640
vn -0.4389 0.8966 -0.0588
vn -0.9270 0.3423 -0.1533
vn -0.1497 0.9429 0.2975
vn -0.3230 0.4497 0.8328
vn -0.4327 0.8958 0.1015
vn -0.8443 0.3932 0.3640
vn 0.3916 0.9104 -0.1336
vn 0.8626 0.3754 -0.3390
vn 0.0988 0.9507 -0.2939
vn 0.2400 0.4614 -0.8541
vn 0.3086 0.9240 -0.2259
vn 0.6575 0.4272 -0.6207
vn -0.0988 0.9507 -0.2939
vn -0.2400 0.4614 -0.8541
vn -0.3916 0.9104 -0.1336
vn -0.8626 0.3754 -0.3390
vn -0.3086 0.9240 -0.2259
vn -0.6575 0.4272 -0.6207
vt 0.000000 0.000000
s 1
usemtl SelectableIndicator.002
f 8/1/8 28/1/28 30/1/30 12/1/12
f 12/1/12 30/1/30 26/1/26 10/1/10
f 6/1/6 36/1/36 32/1/32 4/1/4
f 20/1/20 40/1/40 42/1/42 24/1/24
f 2/1/2 10/1/10 26/1/26 34/1/34
f 14/1/14 4/1/4 32/1/32 46/1/46
f 20/1/20 16/1/16 44/1/44 40/1/40
f 44/1/44 16/1/16 18/1/18 48/1/48
f 8/1/8 22/1/22 38/1/38 28/1/28
f 48/1/48 18/1/18 14/1/14 46/1/46
f 24/1/24 42/1/42 38/1/38 22/1/22
f 31/1/31 35/1/35 33/1/33 25/1/25 29/1/29 27/1/27 37/1/37 41/1/41 39/1/39 43/1/43 47/1/47 45/1/45
f 1/1/1 5/1/5 3/1/3 13/1/13 17/1/17 15/1/15 19/1/19 23/1/23 21/1/21 7/1/7 11/1/11 9/1/9
f 5/1/5 1/1/1 2/1/2 6/1/6
f 33/1/33 35/1/35 36/1/36 34/1/34
f 3/1/3 5/1/5 6/1/6 4/1/4
f 35/1/35 31/1/31 32/1/32 36/1/36
f 47/1/47 43/1/43 44/1/44 48/1/48
f 15/1/15 17/1/17 18/1/18 16/1/16
f 45/1/45 47/1/47 48/1/48 46/1/46
f 17/1/17 13/1/13 14/1/14 18/1/18
f 11/1/11 7/1/7 8/1/8 12/1/12
f 27/1/27 29/1/29 30/1/30 28/1/28
f 9/1/9 11/1/11 12/1/12 10/1/10
f 29/1/29 25/1/25 26/1/26 30/1/30
f 23/1/23 19/1/19 20/1/20 24/1/24
f 39/1/39 41/1/41 42/1/42 40/1/40
f 21/1/21 23/1/23 24/1/24 22/1/22
f 41/1/41 37/1/37 38/1/38 42/1/42
f 1/1/1 9/1/9 10/1/10 2/1/2
f 25/1/25 33/1/33 34/1/34 26/1/26
f 4/1/4 14/1/14 13/1/13 3/1/3
f 16/1/16 20/1/20 19/1/19 15/1/15
f 22/1/22 8/1/8 7/1/7 21/1/21
f 31/1/31 45/1/45 46/1/46 32/1/32
f 37/1/37 27/1/27 28/1/28 38/1/38
f 43/1/43 39/1/39 40/1/40 44/1/44
f 2/1/2 34/1/34 36/1/36 6/1/6
